{"title":"Thundering.Earth.TVRIP","uid":5416073,"size":912156056,"categoryP":"video","categoryS":"other","magnet":"?xt=urn:btih:d7f9ec0bd7d99200be8e84f0561ebbc41d7cba1a&amp;dn=Thundering.Earth.TVRIP&amp;tr=udp%3A%2F%2Ftracker.openbittorrent.com%3A80&amp;tr=udp%3A%2F%2Fopen.demonii.com%3A1337&amp;tr=udp%3A%2F%2Ftracker.coppersurfer.tk%3A6969&amp;tr=udp%3A%2F%2Fexodus.desync.com%3A6969","seeders":0,"leechers":1,"uploader":"spiderpc","files":-1,"time":1267920331,"description":"General:\n      \n      Format : MPEG-PS\n      File size : 870 MiB\n      Duration : 46mn 47s\n      Overall bit rate : 2 599 Kbps\n      Language: English\n      Subtitle: Romanian\n\n\nVideo:      \n      \n      Format : MPEG Video\n      Format version : Version 2\n      Format profile : Main@Main\n      Format settings, Matrix : Default\n      Duration : 46mn 47s\n      Bit rate mode : Variable\n      Bit rate : 2 272 Kbps\n      Nominal bit rate : 2 400 Kbps\n      Width : 480 pixels\n      Height : 576 pixels\n      Display aspect ratio : 4:3\n      Frame rate : 25.000 fps\n      Colorimetry : 4:2:0\n      Scan type : Interlaced\n      Scan order : Top Field First\n      Bits/(Pixel*Frame) : 0.329\n      Stream size : 760 MiB (87%)\n\nAudio:\n\n      ID : 192 (0xC0)\n      Format : MPEG Audio\n      Format version : Version 1\n      Format profile : Layer 2\n      Duration : 46mn 47s\n      Bit rate mode : Constant\n      Bit rate : 224 Kbps\n      Channel(s) : 2 channels\n      Sampling rate : 44.1 KHz\n      Resolution : 16 bits\n      Video delay : -80ms\n      Stream size : 75.0 MiB (9%)","torrent":{"xt":"urn:btih:d7f9ec0bd7d99200be8e84f0561ebbc41d7cba1a","amp;dn":"Thundering.Earth.TVRIP","amp;tr":["udp%3A%2F%2Ftracker.openbittorrent.com%3A80","udp%3A%2F%2Fopen.demonii.com%3A1337","udp%3A%2F%2Ftracker.coppersurfer.tk%3A6969","udp%3A%2F%2Fexodus.desync.com%3A6969"],"infoHash":"d7f9ec0bd7d99200be8e84f0561ebbc41d7cba1a","infoHashBuffer":{"type":"Buffer","data":[215,249,236,11,215,217,146,0,190,142,132,240,86,30,187,196,29,124,186,26]},"announce":[],"urlList":[]}}